
<svg width="192" height="192" viewBox="0 0 512 512" fill="none" xmlns="http://www.w3.org/2000/svg">
  <rect width="512" height="512" rx="96" fill="#0F172A"/>
  <circle cx="256" cy="256" r="180" fill="url(#grad)" />
  <path d="M256 120 C200 120 160 165 160 220 C160 260 185 295 215 320 L215 350 C215 360 225 370 235 370 L277 370 C287 370 297 360 297 350 L297 320 C327 295 352 260 352 220 C352 165 312 120 256 120 Z" fill="#FBBF24"/>
  <rect x="220" y="385" width="72" height="16" rx="8" fill="#E2E8F0"/>
  <rect x="232" y="410" width="48" height="12" rx="6" fill="#94A3B8"/>
  <path d="M256 160 L256 190 M200 200 L220 215 M312 200 L292 215" stroke="#FFFFFF" stroke-width="12" stroke-linecap="round"/>
  <defs>
    <linearGradient id="grad" x1="0" y1="0" x2="512" y2="512" gradientUnits="userSpaceOnUse">
      <stop stop-color="#4F46E5"/>
      <stop offset="1" stop-color="#0F172A"/>
    </linearGradient>
  </defs>
</svg>
